<?xml version="1.0" standalone="no"?>
<!DOCTYPE svg PUBLIC "-//W3C//DTD SVG 20010904//EN"
 "http://www.w3.org/TR/2001/REC-SVG-20010904/DTD/svg10.dtd">
<svg version="1.0" xmlns="http://www.w3.org/2000/svg"
 width="1200.000000pt" height="1200.000000pt" viewBox="0 0 1200.000000 1200.000000"
 preserveAspectRatio="xMidYMid meet">
<metadata>
Created by potrace 1.11, written by Peter Selinger 2001-2013
</metadata>
<g transform="translate(0.000000,1200.000000) scale(0.100000,-0.100000)"
fill="#000000" stroke="none">
<path d="M0 8161 l0 -2598 38 -19 c20 -10 39 -21 42 -24 6 -6 31 -20 110 -63
30 -17 56 -34 58 -39 2 -4 8 -8 13 -8 5 0 75 -38 155 -85 81 -47 148 -85 150
-85 3 0 21 -11 42 -24 20 -12 84 -50 142 -83 58 -34 170 -99 250 -145 80 -46
162 -92 183 -103 20 -11 37 -23 37 -27 0 -5 4 -8 9 -8 5 0 67 -33 138 -74
l128 -74 5 1729 5 1729 80 -46 c44 -26 95 -55 113 -65 17 -11 47 -27 65 -38
17 -10 56 -32 85 -50 29 -17 57 -31 62 -31 6 0 10 -4 10 -10 0 -5 5 -10 11
-10 6 0 63 -31 127 -69 64 -38 140 -81 167 -96 76 -42 119 -68 125 -76 3 -4
18 -11 33 -14 15 -4 27 -10 27 -14 0 -3 17 -15 37 -26 21 -11 96 -54 168 -96
71 -41 137 -78 145 -82 8 -4 33 -19 55 -32 22 -14 48 -28 58 -32 9 -3 17 -8
17 -12 0 -3 14 -12 30 -20 17 -7 82 -44 146 -82 63 -38 117 -69 119 -69 3 0
26 -13 52 -29 27 -16 66 -40 89 -53 23 -12 107 -61 188 -108 81 -47 173 -99
204 -117 31 -17 62 -35 67 -40 6 -4 24 -15 40 -23 17 -8 32 -17 35 -20 3 -3
16 -11 30 -18 14 -7 43 -23 65 -37 22 -13 52 -29 68 -36 15 -6 27 -15 27 -21
0 -5 4 -6 10 -3 5 3 10 1 10 -4 0 -6 4 -11 10 -11 5 0 59 -29 119 -65 60 -36
112 -65 115 -65 2 0 40 -22 83 -48 101 -63 107 -65 136 -41 14 10 30 19 35 19
6 0 17 6 24 13 7 7 34 23 61 36 26 12 47 27 47 32 0 5 3 8 8 7 6 -2 177 92
267 147 11 7 24 12 29 13 5 0 12 4 15 9 3 4 16 14 28 21 13 6 33 18 45 25 13
6 25 15 28 18 3 3 20 11 38 18 17 8 32 17 32 22 0 5 6 9 13 9 7 0 35 15 63 33
28 17 68 41 90 52 21 11 41 22 44 25 11 11 170 100 180 100 5 0 10 4 10 9 0 5
16 15 35 22 19 7 35 17 35 21 0 4 4 8 9 8 12 0 205 113 209 122 2 4 11 8 20 8
8 0 23 6 31 14 9 7 36 25 61 38 25 14 69 39 98 57 29 17 56 31 59 31 4 0 14 6
22 14 9 7 41 27 71 43 30 17 71 39 90 50 19 12 123 71 230 133 107 62 222 129
255 148 108 62 125 72 163 93 20 12 78 45 127 74 50 29 106 62 125 72 19 11
87 50 150 86 111 64 115 66 121 44 3 -12 2 -29 -2 -38 -5 -9 -3 -21 3 -27 7
-7 8 -12 2 -12 -6 0 -8 -23 -4 -60 3 -33 2 -60 -2 -60 -5 0 -4 -9 2 -20 6 -11
7 -20 3 -20 -4 0 -6 -54 -3 -120 3 -66 1 -120 -3 -120 -4 0 -3 -9 3 -20 6 -11
7 -20 2 -20 -5 0 -6 -18 -2 -40 4 -22 3 -40 -2 -40 -5 0 -4 -9 2 -20 6 -11 7
-20 2 -20 -5 0 -6 -18 -2 -40 4 -22 3 -40 -2 -40 -5 0 -4 -9 2 -20 6 -11 7
-20 3 -20 -4 0 -6 -54 -3 -120 3 -66 1 -120 -3 -120 -4 0 -3 -9 3 -20 6 -11 7
-20 2 -20 -4 0 -5 -27 -2 -60 3 -33 2 -60 -2 -60 -5 0 -4 -9 2 -20 6 -11 7
-20 2 -20 -4 0 -5 -27 -2 -60 3 -33 2 -60 -2 -60 -5 0 -4 -9 2 -20 6 -11 7
-20 2 -20 -4 0 -5 -27 -2 -60 3 -33 2 -60 -2 -60 -5 0 -4 -9 2 -20 6 -11 7
-20 3 -20 -4 0 -7 -42 -5 -94 l3 -95 -38 -21 c-21 -11 -60 -34 -88 -51 -27
-16 -61 -35 -75 -42 -14 -6 -27 -14 -30 -18 -3 -3 -36 -23 -75 -44 -38 -21
-72 -41 -75 -44 -3 -3 -25 -16 -50 -29 -25 -13 -83 -46 -128 -73 -46 -27 -88
-49 -93 -49 -5 0 -9 -4 -9 -9 0 -5 -8 -11 -17 -14 -19 -6 -90 -46 -184 -103
-31 -19 -62 -34 -68 -34 -6 0 -11 -4 -11 -10 0 -5 -7 -10 -15 -10 -8 0 -15 -4
-15 -8 0 -4 -12 -13 -27 -19 -16 -7 -50 -25 -78 -42 -64 -39 -103 -61 -152
-85 -21 -11 -40 -23 -43 -26 -5 -5 -129 -77 -225 -130 -22 -12 -44 -26 -50
-30 -18 -14 -120 -71 -137 -77 -10 -3 -18 -9 -18 -14 0 -5 -6 -9 -13 -9 -7 0
-28 -11 -47 -23 -19 -13 -62 -39 -95 -57 -69 -38 -138 -78 -210 -121 -27 -16
-59 -34 -70 -39 -11 -6 -42 -24 -70 -40 -27 -17 -59 -35 -70 -40 -11 -6 -45
-26 -75 -45 -30 -19 -60 -34 -67 -35 -6 0 -13 -4 -15 -8 -1 -4 -28 -22 -58
-39 -30 -17 -138 -79 -239 -137 -101 -58 -185 -106 -188 -106 -13 0 -82 -54
-77 -61 3 -5 0 -9 -6 -9 -8 0 -8 -6 0 -20 7 -13 7 -20 1 -20 -7 0 -7 -9 -2
-22 4 -13 5 -34 1 -48 -4 -14 -3 -35 1 -47 5 -14 5 -23 -2 -23 -6 0 -6 -7 1
-20 6 -11 7 -20 2 -20 -5 0 -6 -18 -2 -40 4 -22 3 -40 -2 -40 -5 0 -4 -9 2
-20 6 -11 7 -20 3 -20 -4 0 -6 -153 -3 -340 3 -187 1 -340 -3 -340 -4 0 -3 -9
3 -20 6 -11 7 -20 2 -20 -5 0 -6 -18 -2 -40 4 -22 3 -40 -2 -40 -5 0 -4 -9 2
-20 6 -11 7 -20 2 -20 -5 0 -6 -18 -2 -40 4 -22 3 -40 -2 -40 -5 0 -4 -9 2
-20 6 -11 7 -20 2 -20 -5 0 -6 -18 -2 -40 4 -22 3 -40 -2 -40 -5 0 -4 -9 2
-20 6 -11 7 -20 2 -20 -5 0 -6 -18 -2 -40 4 -22 3 -40 -2 -40 -5 0 -4 -9 2
-20 6 -11 7 -20 2 -20 -5 0 -6 -18 -2 -40 4 -22 3 -40 -2 -40 -5 0 -4 -9 2
-20 6 -12 7 -20 1 -20 -5 0 -6 -12 -2 -27 5 -18 26 -38 70 -65 35 -21 64 -38
66 -38 2 0 49 -27 105 -60 56 -33 106 -60 111 -60 5 0 9 -4 9 -10 0 -5 6 -10
13 -10 7 0 28 -10 47 -23 19 -13 60 -37 90 -53 30 -16 57 -31 60 -34 3 -3 61
-38 130 -77 69 -39 181 -104 250 -143 69 -40 150 -86 180 -103 30 -16 62 -36
71 -43 8 -8 19 -14 22 -14 4 0 41 -20 81 -45 41 -25 79 -45 85 -45 6 0 11 -3
11 -8 0 -4 15 -13 33 -21 17 -8 34 -17 37 -21 3 -4 37 -24 75 -44 39 -21 90
-51 115 -66 111 -67 286 -165 293 -162 4 1 7 -3 7 -8 0 -6 10 -14 23 -19 12
-5 47 -23 77 -41 30 -18 69 -41 85 -50 217 -126 278 -160 286 -160 5 0 9 -4 9
-10 0 -5 4 -10 9 -10 5 0 69 -35 142 -78 74 -43 141 -81 149 -85 8 -4 33 -18
55 -31 22 -14 77 -46 122 -71 l82 -46 73 38 c40 21 75 41 78 44 3 3 32 20 65
39 33 18 68 40 78 48 9 8 17 12 17 8 0 -4 6 -2 13 4 18 16 121 75 156 91 17 8
31 17 31 20 0 3 23 16 50 29 27 13 50 27 50 32 0 4 5 8 11 8 6 0 54 26 107 57
54 31 111 64 127 73 86 46 251 145 257 154 4 6 8 7 8 2 0 -5 6 -4 13 2 20 17
328 192 338 192 5 0 9 5 9 10 0 6 4 10 9 10 5 0 67 34 136 75 70 41 129 75
131 75 2 0 33 18 69 40 36 22 68 40 71 40 3 0 18 8 32 19 15 10 50 31 77 45
52 28 57 31 142 83 30 18 55 33 57 33 3 0 39 20 80 45 42 25 81 45 86 45 6 0
10 5 10 10 0 6 6 10 14 10 7 0 19 7 26 15 7 8 16 13 20 10 5 -3 11 -1 14 4 3
5 52 35 108 67 57 32 115 65 129 74 14 8 62 35 105 59 43 25 81 47 84 50 3 4
30 19 60 35 30 16 78 44 107 62 28 18 54 30 57 27 3 -4 6 -1 6 5 0 7 7 12 15
12 8 0 15 5 15 10 0 6 5 10 11 10 6 0 45 20 86 45 40 25 78 45 83 45 5 0 15 6
22 14 8 7 43 28 78 47 36 19 67 37 68 42 2 4 10 7 18 7 8 0 14 5 14 10 0 6 4
10 9 10 8 0 46 21 241 132 107 62 126 73 131 81 3 5 8 7 10 6 2 -2 36 16 74
38 39 22 93 53 120 68 28 16 52 31 55 34 3 3 28 17 55 31 28 14 52 28 55 31 3
3 33 21 67 40 34 19 84 47 112 63 l51 29 0 1729 c0 950 -4 1728 -8 1728 -4 0
-29 -13 -55 -30 -26 -16 -47 -26 -47 -22 0 4 -4 3 -8 -3 -4 -5 -20 -18 -37
-27 -200 -116 -391 -226 -413 -237 -15 -8 -28 -18 -30 -23 -2 -4 -8 -8 -14 -8
-6 0 -43 -20 -83 -44 -39 -24 -82 -47 -93 -50 -12 -4 -22 -11 -22 -16 0 -5
-16 -14 -35 -21 -19 -7 -35 -17 -35 -21 0 -4 -5 -8 -10 -8 -6 0 -40 -18 -76
-40 -36 -22 -70 -40 -75 -40 -5 0 -9 -4 -9 -10 0 -5 -9 -10 -20 -10 -11 0 -20
-4 -20 -9 0 -5 -16 -16 -35 -25 -19 -9 -69 -37 -110 -61 -42 -25 -80 -45 -84
-45 -5 0 -11 -3 -13 -7 -1 -5 -28 -21 -58 -37 -30 -16 -66 -38 -80 -49 l-25
-19 -5 -865 -5 -865 -220 -129 c-121 -70 -225 -128 -232 -129 -6 0 -13 -3 -15
-8 -1 -4 -77 -50 -168 -101 -91 -52 -172 -100 -181 -108 -9 -7 -19 -10 -22 -6
-4 3 -7 1 -7 -5 0 -6 -10 -14 -22 -18 -12 -3 -45 -22 -75 -41 -29 -18 -53 -30
-53 -26 0 4 -4 3 -8 -3 -4 -5 -61 -41 -127 -80 -66 -38 -127 -73 -137 -79 -9
-5 -41 -23 -70 -39 -29 -16 -65 -37 -79 -47 -15 -10 -38 -23 -53 -29 -14 -5
-26 -14 -26 -20 0 -6 -4 -9 -9 -5 -5 3 -16 0 -23 -7 -8 -7 -29 -21 -48 -32
-118 -64 -145 -80 -148 -88 -2 -4 -8 -8 -12 -8 -8 0 -151 -80 -308 -173 -26
-15 -58 -33 -72 -40 -14 -6 -27 -14 -30 -17 -3 -3 -16 -11 -29 -18 -71 -41
-114 -66 -251 -146 -25 -15 -53 -29 -62 -33 -10 -3 -18 -9 -18 -14 0 -5 -6 -9
-13 -9 -7 0 -29 -11 -50 -25 -20 -14 -37 -22 -37 -18 0 4 -4 3 -8 -3 -4 -6
-91 -59 -194 -118 l-187 -107 -58 32 c-32 18 -68 38 -80 43 -13 6 -23 14 -23
19 0 4 -4 7 -9 7 -9 0 -152 79 -161 89 -3 4 -18 13 -35 21 -16 8 -48 26 -70
39 -22 14 -53 32 -70 41 -54 29 -129 73 -167 97 -21 12 -42 23 -48 23 -5 0
-10 3 -10 8 0 4 -20 16 -45 27 -25 11 -45 23 -45 28 0 4 -7 7 -15 7 -8 0 -15
5 -15 10 0 6 -4 10 -10 10 -5 0 -33 14 -62 31 -29 17 -82 47 -118 67 -36 19
-89 50 -118 69 -29 18 -56 33 -61 33 -5 0 -14 7 -21 15 -7 8 -16 12 -21 9 -5
-3 -9 -2 -9 3 0 4 -23 19 -50 32 -28 14 -50 29 -50 33 0 4 -5 8 -10 8 -21 0
-123 64 -109 68 8 3 16 8 19 12 3 4 25 18 50 30 25 12 47 25 50 29 3 3 31 19
63 36 31 16 57 33 57 37 0 4 5 8 10 8 6 0 65 32 131 70 66 39 123 70 127 70 5
0 13 5 20 12 13 13 100 64 170 99 23 12 42 25 42 30 0 5 6 9 14 9 8 0 47 20
87 45 40 25 79 45 85 45 7 0 14 4 16 8 3 8 38 29 128 80 25 14 99 57 165 95
66 39 145 84 175 100 30 17 57 34 58 39 2 4 12 8 22 8 10 0 20 4 22 8 2 4 54
37 116 72 62 36 121 70 130 75 10 6 49 28 87 50 39 22 84 48 100 57 17 10 45
25 62 33 18 9 33 19 33 23 0 4 12 13 28 19 15 7 59 30 97 53 39 23 78 44 88
47 9 3 17 9 17 13 0 4 11 11 25 14 14 4 25 11 25 16 0 6 5 10 11 10 5 0 52 25
104 55 52 31 97 55 101 55 4 -1 10 2 13 7 8 11 220 133 232 133 5 0 9 5 9 10
0 6 4 10 10 10 5 0 44 20 86 45 41 25 80 45 85 45 14 0 26 61 19 105 -3 22 -3
54 0 70 4 17 3 40 -2 53 -5 14 -4 22 3 22 8 0 8 4 1 13 -6 7 -7 18 -3 25 4 7
5 33 1 58 -4 24 -4 47 0 49 4 2 4 25 0 50 -4 27 -3 45 3 45 5 0 5 5 -1 13 -6
7 -7 18 -3 25 4 7 5 32 2 55 -4 23 -4 56 -1 72 4 17 3 40 -2 53 -5 14 -4 22 3
22 8 0 8 4 1 13 -6 7 -7 18 -3 25 4 7 5 33 1 58 -4 24 -4 47 0 49 4 2 4 25 0
50 -4 27 -3 45 3 45 5 0 5 5 -1 13 -6 7 -7 18 -3 25 4 7 5 32 2 55 -4 23 -4
56 -1 72 4 17 3 40 -2 53 -5 14 -4 22 3 22 8 0 8 4 0 13 -6 8 -8 17 -5 20 6 6
7 38 3 170 0 32 1 61 4 64 3 3 2 16 -3 29 -7 16 -6 24 1 24 8 0 8 4 1 13 -6 7
-7 18 -3 25 4 7 5 33 1 58 -4 24 -4 47 0 49 4 2 4 25 0 50 -4 27 -3 45 3 45 5
0 5 5 -1 13 -6 7 -7 18 -3 25 4 7 5 32 2 55 -4 23 -4 56 -1 72 4 17 3 40 -2
53 -5 14 -4 22 3 22 8 0 8 4 1 13 -6 7 -7 18 -3 25 4 7 5 33 1 58 -4 24 -4 47
0 49 4 2 4 25 0 50 -4 27 -3 45 3 45 5 0 5 5 -1 13 -6 7 -7 18 -3 25 4 7 5 32
2 55 -4 23 -4 56 -1 72 4 17 3 40 -2 53 -5 14 -4 22 3 22 8 0 8 4 1 13 -6 7
-7 18 -2 27 4 7 5 23 0 34 -4 12 -4 30 0 40 3 11 4 38 0 60 -3 23 -3 55 0 71
4 17 3 40 -2 53 -5 14 -4 22 3 22 8 0 8 4 1 13 -6 7 -7 18 -3 25 4 7 5 33 1
58 -4 24 -4 47 0 49 4 2 4 25 0 50 -4 27 -3 45 3 45 5 0 5 5 -1 13 -6 7 -7 18
-3 25 4 7 5 32 2 55 -4 23 -4 56 -1 72 4 17 3 40 -2 53 -5 14 -4 22 3 22 8 0
8 4 1 13 -6 7 -7 18 -3 25 4 7 5 33 1 58 -4 24 -4 47 0 49 4 2 4 25 0 50 -4
27 -3 45 3 45 5 0 5 5 -1 13 -6 7 -7 18 -3 25 4 7 5 32 2 55 -4 23 -4 56 -1
72 4 17 3 40 -2 53 -5 14 -4 22 3 22 8 0 8 4 0 13 -6 8 -8 17 -5 20 6 6 7 38
3 170 0 32 1 61 4 64 3 3 2 16 -3 29 -7 16 -6 24 1 24 8 0 8 4 1 13 -6 7 -7
18 -3 25 4 7 5 33 1 58 -4 24 -4 47 0 49 4 2 4 25 0 50 -4 27 -3 45 3 45 5 0
5 5 -1 13 -6 7 -7 18 -3 25 4 7 5 32 2 55 -4 23 -4 56 -1 72 4 17 3 40 -2 53
-5 14 -4 22 3 22 8 0 8 4 1 13 -6 7 -7 18 -3 25 4 7 5 33 1 58 -4 24 -4 47 0
49 4 2 4 25 0 50 -4 27 -3 45 3 45 5 0 5 5 -1 13 -6 7 -7 18 -3 25 4 7 5 32 2
55 -4 23 -4 56 -1 72 4 17 3 40 -2 53 -5 14 -4 22 3 22 8 0 8 4 1 13 -6 7 -8
18 -4 24 10 16 2 113 -9 113 -5 0 -27 -11 -49 -25 -22 -14 -44 -25 -49 -25 -5
0 -11 -3 -13 -7 -1 -5 -19 -16 -38 -27 -91 -49 -145 -80 -150 -85 -3 -3 -30
-19 -60 -35 -30 -16 -63 -36 -72 -44 -10 -8 -18 -11 -18 -6 0 5 -4 5 -8 -1 -8
-11 -27 -23 -112 -69 -30 -16 -57 -32 -60 -35 -3 -3 -23 -15 -45 -26 -22 -11
-42 -22 -45 -25 -3 -4 -36 -24 -75 -45 -38 -22 -83 -48 -100 -58 -16 -10 -42
-23 -57 -30 -16 -6 -28 -15 -28 -19 0 -4 -7 -8 -15 -8 -8 0 -15 -5 -15 -11 0
-5 -5 -7 -10 -4 -5 3 -10 2 -10 -3 0 -6 -11 -13 -25 -16 -14 -4 -25 -11 -25
-16 0 -6 -9 -10 -19 -10 -11 0 -21 -4 -23 -8 -1 -5 -50 -35 -108 -67 -58 -33
-107 -62 -110 -65 -3 -3 -16 -11 -30 -17 -14 -7 -46 -25 -72 -40 -162 -95
-300 -173 -309 -173 -5 0 -9 -3 -9 -8 0 -4 -21 -18 -47 -32 -27 -13 -67 -37
-91 -53 -23 -15 -42 -24 -42 -20 0 4 -6 1 -13 -8 -7 -9 -23 -20 -37 -24 -14
-4 -27 -10 -30 -14 -8 -10 -63 -42 -82 -48 -10 -3 -18 -9 -18 -14 0 -5 -5 -9
-11 -9 -6 0 -64 -31 -129 -70 -65 -38 -123 -70 -129 -70 -6 0 -11 -4 -11 -10
0 -5 -4 -10 -9 -10 -4 0 -46 -22 -92 -50 -46 -27 -96 -55 -111 -61 -16 -6 -28
-15 -28 -20 0 -5 -3 -8 -7 -7 -5 1 -19 -5 -33 -14 -68 -43 -290 -168 -299
-168 -6 0 -11 -4 -11 -9 0 -5 -8 -11 -17 -15 -10 -3 -40 -19 -68 -36 -27 -17
-57 -34 -65 -37 -8 -4 -17 -9 -20 -12 -3 -3 -21 -14 -40 -24 -68 -36 -95 -52
-108 -64 -7 -7 -17 -13 -21 -13 -5 0 -48 -24 -97 -53 -49 -29 -111 -64 -137
-77 -26 -14 -58 -34 -70 -45 -12 -11 -23 -18 -25 -16 -2 2 -38 -18 -81 -43
-43 -25 -83 -46 -90 -46 -6 0 -11 -4 -11 -10 0 -5 -11 -12 -25 -16 -14 -3 -25
-9 -25 -13 0 -3 -15 -12 -32 -20 -18 -8 -35 -17 -38 -21 -3 -4 -30 -20 -60
-37 -30 -17 -94 -53 -142 -81 -47 -27 -89 -48 -92 -44 -3 3 -6 1 -6 -5 0 -6
-24 -23 -52 -38 -29 -15 -81 -45 -115 -65 l-62 -38 -138 80 c-76 44 -162 93
-190 109 -29 16 -69 41 -89 54 -20 14 -40 23 -44 20 -5 -3 -10 -1 -12 4 -2 7
-56 39 -233 141 -16 10 -70 40 -119 69 -49 28 -93 51 -97 51 -5 0 -9 4 -9 8 0
5 -16 14 -35 22 -19 8 -35 17 -35 22 0 4 -4 8 -10 8 -8 0 -117 60 -180 99 -79
50 -155 91 -166 91 -8 0 -14 4 -14 9 0 4 -21 19 -47 33 -27 14 -99 55 -161 92
-62 36 -132 77 -155 90 -145 82 -267 152 -298 172 -20 13 -40 20 -43 17 -3 -4
-6 -1 -6 6 0 6 -11 16 -25 21 -13 5 -41 20 -62 33 -21 13 -60 37 -88 52 -91
52 -157 90 -194 112 -20 12 -52 30 -71 40 -19 9 -54 30 -77 45 -23 16 -44 28
-47 28 -3 0 -35 18 -71 40 -36 22 -67 40 -69 40 -2 0 -33 17 -67 38 -35 22
-86 51 -114 67 -108 60 -210 119 -215 125 -3 3 -20 12 -37 19 -18 8 -33 16
-33 20 0 3 -15 13 -32 20 -27 12 -89 48 -178 102 -8 5 -26 15 -40 21 -14 7
-43 24 -65 38 -22 14 -53 32 -70 40 -16 8 -32 18 -35 21 -3 3 -30 19 -60 36
-30 17 -111 63 -180 103 -69 40 -150 86 -180 103 -30 17 -83 48 -118 69 -34
21 -64 38 -66 38 -2 0 -33 17 -67 38 -35 22 -85 51 -111 65 l-48 27 0 -2599z"/>
<path d="M11975 10747 c-11 -8 -47 -29 -80 -47 -33 -18 -77 -44 -97 -57 -21
-12 -42 -23 -48 -23 -5 0 -10 -4 -10 -8 0 -5 -16 -14 -35 -22 -19 -8 -35 -17
-35 -22 0 -4 -6 -8 -14 -8 -7 0 -19 -7 -26 -15 -7 -8 -16 -12 -21 -9 -5 3 -9
0 -9 -5 0 -6 -4 -11 -10 -11 -8 0 -59 -29 -180 -100 -22 -14 -179 -102 -214
-122 -17 -9 -35 -21 -41 -26 -5 -4 -35 -21 -65 -37 -30 -16 -62 -34 -70 -41
-8 -6 -46 -28 -85 -49 -38 -21 -82 -46 -97 -57 -16 -11 -28 -16 -28 -11 0 4
-4 3 -8 -3 -6 -9 -96 -64 -142 -87 -8 -4 -37 -21 -65 -37 -27 -16 -60 -35 -72
-42 l-23 -11 0 -864 c0 -474 3 -863 6 -863 4 0 38 18 76 40 39 22 74 40 79 40
5 0 9 3 9 8 0 4 21 18 48 32 26 14 90 50 142 81 52 30 102 58 110 62 8 4 33
18 55 32 22 14 49 30 60 35 11 6 38 22 60 36 22 14 52 30 68 37 15 6 27 15 27
19 0 4 6 8 13 8 7 0 19 6 26 13 6 6 15 12 19 12 4 0 18 8 32 17 55 35 222 128
231 128 5 0 9 4 9 8 0 4 26 21 58 37 31 16 63 35 70 42 7 7 24 16 38 19 13 3
24 10 24 15 0 5 5 9 10 9 6 0 40 18 76 40 36 22 70 40 75 40 5 0 9 5 9 10 0 6
6 10 14 10 8 0 23 8 35 18 l21 17 -2 863 c-3 860 -3 862 -23 849z"/>
</g>
</svg>
